<svg width="0" height="0" class="hidden">
  <symbol  xmlns="http://www.w3.org/2000/svg" viewBox="0 0 6 6" id="Ellipse2">
    <circle cx="3" cy="3" r="3" ></circle>
  </symbol>
  <symbol  xmlns="http://www.w3.org/2000/svg" viewBox="0 0 16 16" id="full-screen">
    <path d="M4 1V0H.5a.5.5 0 00-.5.5V4h1V1.705L5.645 6.35l.705-.705L1.705 1H4zm11.5-1H12v1h2.295L9.65 5.645l.705.705L15 1.705V4h1V.5a.5.5 0 00-.5-.5zM15 14.295L10.355 9.65l-.705.705L14.295 15H12v1h3.5a.5.5 0 00.5-.5V12h-1v2.295zm-9.355-4.65L1 14.295V12H0v3.5a.5.5 0 00.5.5H4v-1H1.705l4.645-4.645-.705-.71z" ></path>
  </symbol>
  <symbol  xmlns="http://www.w3.org/2000/svg" viewBox="0 0 19 19" id="heart">
    <path d="M9.5 17.943c-.27 0-.531-.098-.735-.276a220.448 220.448 0 00-2.16-1.858l-.003-.003c-1.914-1.631-3.567-3.04-4.718-4.428C.6 9.827 0 8.356 0 6.75c0-1.561.535-3.001 1.507-4.056a5.11 5.11 0 013.8-1.654 4.78 4.78 0 012.986 1.03c.446.346.85.768 1.207 1.26.356-.492.76-.914 1.207-1.26a4.78 4.78 0 012.985-1.03 5.11 5.11 0 013.8 1.654C18.466 3.748 19 5.188 19 6.75c0 1.607-.599 3.078-1.884 4.63-1.15 1.387-2.803 2.796-4.717 4.427-.654.557-1.395 1.188-2.165 1.861a1.115 1.115 0 01-.734.276zM5.308 2.152a4.01 4.01 0 00-2.983 1.296c-.781.848-1.212 2.02-1.212 3.301 0 1.352.502 2.56 1.628 3.92 1.089 1.313 2.708 2.692 4.582 4.29l.004.003a231.77 231.77 0 012.171 1.867 258.39 258.39 0 012.179-1.87c1.874-1.598 3.493-2.977 4.582-4.29 1.126-1.36 1.628-2.568 1.628-3.92 0-1.28-.43-2.453-1.213-3.301a4.008 4.008 0 00-2.982-1.296c-.844 0-1.62.269-2.304.798-.61.472-1.035 1.069-1.285 1.486a.697.697 0 01-.603.343.697.697 0 01-.603-.343c-.25-.417-.675-1.014-1.285-1.486a3.691 3.691 0 00-2.304-.798z" ></path>
  </symbol>
  <symbol  xmlns="http://www.w3.org/2000/svg" viewBox="0 0 36 36" id="insta">
    <path d="M18.354 36h-.358c-2.822.006-5.43-.065-7.965-.22-2.325-.141-4.447-.945-6.137-2.323-1.63-1.33-2.745-3.128-3.31-5.344C.092 26.184.066 24.29.04 22.46A394.49 394.49 0 010 18.003c.004-1.59.023-3.147.04-4.462.026-1.831.052-3.725.544-5.654.565-2.216 1.68-4.014 3.31-5.344C5.584 1.164 7.706.36 10.031.22c2.536-.154 5.144-.226 7.972-.22 2.823-.006 5.429.066 7.965.22 2.324.141 4.446.944 6.137 2.323 1.63 1.33 2.744 3.128 3.31 5.344.492 1.929.518 3.823.543 5.654.018 1.315.037 2.872.04 4.456v.006a389.493 389.493 0 01-.04 4.456c-.025 1.83-.05 3.725-.543 5.654-.566 2.216-1.68 4.014-3.31 5.344-1.69 1.378-3.813 2.182-6.137 2.323-2.429.148-4.923.22-7.614.22zm-.358-2.813c2.776.007 5.325-.063 7.8-.214 1.759-.107 3.283-.677 4.531-1.695 1.154-.942 1.95-2.24 2.363-3.86.41-1.606.433-3.33.456-4.998.018-1.305.036-2.852.04-4.42a393.827 393.827 0 00-.04-4.42c-.023-1.668-.047-3.392-.456-4.998-.414-1.62-1.209-2.919-2.363-3.86-1.248-1.018-2.772-1.588-4.53-1.695a123.51 123.51 0 00-7.794-.214c-2.776-.007-5.325.063-7.801.214-1.758.107-3.282.677-4.53 1.695-1.155.941-1.95 2.24-2.363 3.86-.41 1.606-.433 3.33-.456 4.998a396.665 396.665 0 00-.04 4.423c.003 1.563.022 3.11.04 4.417.023 1.667.046 3.392.456 4.998.413 1.62 1.208 2.918 2.362 3.86 1.249 1.017 2.773 1.588 4.53 1.695 2.477.15 5.027.22 7.795.214zm-.067-6.398c-4.846 0-8.79-3.943-8.79-8.79 0-4.845 3.944-8.788 8.79-8.788 4.846 0 8.789 3.943 8.789 8.789s-3.943 8.789-8.79 8.789zm0-14.766A5.983 5.983 0 0011.952 18a5.984 5.984 0 005.977 5.977A5.983 5.983 0 0023.906 18a5.983 5.983 0 00-5.977-5.977zm9.773-5.625a2.11 2.11 0 100 4.22 2.11 2.11 0 000-4.22z" ></path>
  </symbol>
  <symbol  xmlns="http://www.w3.org/2000/svg" viewBox="0 0 18 18" id="right-arrow">
    <path d="M12.177 9.004L4.354 1.182a.693.693 0 01.98-.98l8.312 8.312c.27.27.27.71 0 .98l-8.312 8.311a.693.693 0 01-.98-.979l7.823-7.822z" ></path>
  </symbol>
  <symbol  xmlns="http://www.w3.org/2000/svg" viewBox="0 0 18 18" id="left-arrow">
    <path d="M5.824 9.004l7.822-7.822a.692.692 0 10-.98-.98L4.354 8.515a.693.693 0 000 .98l8.312 8.311a.692.692 0 00.98-.979L5.824 9.004z"  opacity=".3"></path>
  </symbol>
  <symbol  xmlns="http://www.w3.org/2000/svg" viewBox="0 0 18 18" id="shopping-bag">
    <g clip-path="url(#clip0)">
      <path d="M16.807 17.408L15.439 4.38a.536.536 0 00-.533-.48h-2.572v-.586A3.318 3.318 0 009.02 0a3.318 3.318 0 00-3.314 3.314v.587H3.134a.536.536 0 00-.533.48L1.233 17.407a.537.537 0 00.533.592h14.508a.535.535 0 00.533-.592zM6.777 3.314A2.246 2.246 0 019.02 1.071a2.245 2.245 0 012.243 2.243v.587H6.777v-.587zM2.361 16.928L3.617 4.973h2.089v1.18a.536.536 0 001.071 0v-1.18h4.486v1.18a.536.536 0 001.071 0v-1.18h2.09l1.255 11.956H2.36z" ></path>
    </g>
    <defs>
      <clipPath id="clip0">
        <path  d="M0 0h18v18H0z"></path>
      </clipPath>
    </defs>
  </symbol>
  <symbol  xmlns="http://www.w3.org/2000/svg" viewBox="0 0 18 18" id="search">
    <path d="M17.402 16.386l-3.87-3.87a7.365 7.365 0 001.687-4.711c0-1.983-.77-3.843-2.172-5.246A7.355 7.355 0 007.804.387c-1.98 0-3.843.77-5.246 2.172A7.357 7.357 0 00.387 7.805c0 1.979.77 3.842 2.172 5.245a7.372 7.372 0 005.246 2.173 7.35 7.35 0 004.71-1.688l3.871 3.867a.717.717 0 001.016 0 .717.717 0 000-1.016zM3.575 12.031a5.927 5.927 0 01-1.754-4.226 5.95 5.95 0 011.75-4.23 5.94 5.94 0 014.23-1.75 5.95 5.95 0 014.23 1.75 5.94 5.94 0 011.75 4.23c0 1.596-.622 3.1-1.75 4.229a5.947 5.947 0 01-4.23 1.75 5.927 5.927 0 01-4.226-1.754z" ></path>
  </symbol>
  <symbol  xmlns="http://www.w3.org/2000/svg" viewBox="0 0 39 24" id="Vector-logo">
    <g opacity="1" >
      <path d="M16.42 19.566c-.127-.065-.312.052-.445.14-1.652 1.078-3.357 2.062-5.235 2.683-2.533.838-5.095 1.049-7.669.188-.898-.3-1.704-.774-2.284-1.541-1.38-1.816-.904-4.107 1.102-5.32.307-.187.637-.345.98-.45.306-.094.434-.235.503-.568.377-1.922 1.71-2.883 3.467-3.31 1.298-.316 2.62-.152 3.918.117l.574.117V.363l.087.088 8.133 11.323c2.696-3.93 5.356-7.808 8.08-11.774v11.277c.627-.112 1.19-.24 1.763-.305 1.304-.146 2.608-.17 3.832.422 1.327.65 2.266 1.617 2.452 3.175.011.105.191.234.324.28.789.282 1.519.663 2.075 1.307 1.554 1.805 1.096 4.253-1.002 5.524-1.189.72-2.499.996-3.855 1.066-3.455.182-6.55-.966-9.426-2.77l-1.205-.71c-.736-.503-1.409-.954-2.076-1.411-.944-.65-.95-.65-1.884 0-.69.474-1.367.96-2.104 1.476l-.104.235zm-4.04-16.11c-.04.012-.08.018-.121.03v.474c0 2.49.011 4.973-.012 7.463-.005.404.151.55.493.668 2.36.82 4.504 2.044 6.446 3.626.278.228.446.252.76.03 2.069-1.5 4.161-2.977 6.51-4.014.242-.11.271-.269.271-.498-.005-2.565 0-5.125-.005-7.69 0-.112-.024-.224-.047-.475l-7.118 10.374c-2.417-3.363-4.8-6.678-7.176-9.988zM3.327 15.588c-.423.205-.829.363-1.188.592-1.34.855-1.902 2.255-1.409 3.573.43 1.148 1.357 1.793 2.452 2.173 1.82.639 3.687.604 5.542.229 2.388-.486 4.48-1.646 6.48-3.005.041-.03.07-.088.134-.176-1.194-.615-2.354-1.201-3.472-1.775-.308.293-.534.533-.795.732-1.124.844-2.422 1.078-3.785 1.002-2.052-.123-3.472-1.3-3.959-3.345zm20.347 3.321c.26.17.434.282.608.393 2.847 1.775 5.867 2.952 9.287 2.724 1.147-.076 2.26-.305 3.246-.931 1.014-.645 1.687-1.541 1.605-2.8-.092-1.43-1.304-2.69-2.764-2.97-.024.064-.064.128-.076.199-.232 1.124-.864 1.95-1.866 2.478-1.409.738-2.876.738-4.365.31-.84-.24-1.537-.715-2.122-1.377-1.177.65-2.319 1.29-3.553 1.974zm-11.368-5.957c-.185 1.353.197 2.66-.295 3.913a672.19 672.19 0 003.507 1.91c.07.035.208.017.278-.035.98-.692 1.953-1.395 2.974-2.127-1.965-1.61-4.075-2.823-6.464-3.661zm8.052 3.685c1.009.703 1.953 1.364 2.904 2.009.075.053.128.123.313.017a162.43 162.43 0 003.264-1.903c.08-.047.237-.106.203-.17-.32-.58-.32-1.342-.325-1.957-.006-.627 0-1.253 0-1.986-2.313 1.113-4.324 2.496-6.36 3.99zm14.295-2.062c.005-.112.017-.159.005-.2a.929.929 0 00-.063-.216c-.412-1.19-1.328-1.816-2.458-2.115-1.426-.38-2.852-.17-4.25.228-.11.03-.237.223-.237.346a45.977 45.977 0 000 2.683c.012.299.087.603.22.943 2.186-1.084 4.377-1.793 6.783-1.67zm-23.477 1.927c.098-.305.162-.58.145-.844.017-.896 0-1.786.011-2.683 0-.228-.046-.357-.295-.41-1.102-.258-2.203-.44-3.333-.34-1.067.088-2.006.48-2.742 1.29-.354.386-.626.831-.65 1.434 2.418-.175 4.62.557 6.864 1.553zM11 16.83c-.075-.041-.104-.047-.156-.082-2.082-.873-4.203-1.547-6.545-1.312.127.808.464 1.435 1.09 1.85 1.304.874 2.713.838 4.127.37.487-.164 1.032-.54 1.484-.826zm17.123-.31c.256.193.447.374.661.48a6.693 6.693 0 002 .603c1.09.14 2.15-.07 3.026-.82.504-.434.8-.984.858-1.71-2.336-.194-4.434.456-6.544 1.446z"></path>
      <path d="M22.954 19.407c-.887.41-1.768.856-2.655 1.29-.887.433-1.768.872-2.667 1.282-.11.053-.226.1-.336.152-.11.053-.226.1-.342.147a16.58 16.58 0 01-.69.263c-.463.17-.927.328-1.397.48a78.37 78.37 0 01-2.823.862c.94-.293 1.873-.598 2.8-.926.464-.164.928-.334 1.386-.515a16.79 16.79 0 001.02-.434c.11-.052.22-.105.336-.158.887-.428 1.762-.879 2.638-1.33l1.315-.673c.441-.223.876-.451 1.322-.662l.093.222z"></path>
      <path d="M16.42 19.302c.447.217.888.44 1.323.662l1.315.674c.876.45 1.751.902 2.638 1.33.11.052.22.105.336.157.11.053.226.1.336.153.226.1.453.187.684.28.458.183.922.352 1.386.516.927.328 1.86.633 2.8.926-.945-.27-1.89-.556-2.823-.861-.47-.152-.934-.31-1.397-.48-.232-.088-.464-.17-.69-.264a8.506 8.506 0 01-.342-.146 5.917 5.917 0 01-.336-.153c-.899-.41-1.78-.85-2.667-1.283-.881-.433-1.762-.878-2.655-1.288l.093-.223z"></path>
    </g>
  </symbol>
  <symbol  xmlns="http://www.w3.org/2000/svg" viewBox="0 0 18 18" id="account">
    <path d="M8.872 8.67a4.195 4.195 0 003.065-1.27 4.195 4.195 0 001.27-3.065c0-1.19-.427-2.222-1.27-3.065A4.196 4.196 0 008.872 0a4.195 4.195 0 00-3.066 1.27 4.195 4.195 0 00-1.27 3.065c0 1.192.428 2.223 1.27 3.066a4.196 4.196 0 003.066 1.27zm-2.32-6.654c.647-.647 1.406-.961 2.32-.961.914 0 1.672.314 2.32.96.646.648.96 1.406.96 2.32 0 .914-.314 1.673-.96 2.32-.648.646-1.406.96-2.32.96a3.137 3.137 0 01-2.32-.96 3.137 3.137 0 01-.96-2.32c0-.914.314-1.672.96-2.32zm9.906 11.824c-.025-.35-.074-.733-.146-1.137a8.951 8.951 0 00-.28-1.143 5.648 5.648 0 00-.47-1.067 4.02 4.02 0 00-.709-.923 3.127 3.127 0 00-1.018-.64 3.52 3.52 0 00-1.3-.236c-.184 0-.362.076-.705.3l-.734.473a4.24 4.24 0 01-.95.418 3.773 3.773 0 01-1.161.188 3.79 3.79 0 01-1.162-.188 4.194 4.194 0 01-.949-.418c-.273-.175-.52-.334-.735-.474-.343-.223-.52-.299-.704-.299-.468 0-.905.08-1.3.236a3.123 3.123 0 00-1.018.64 4.021 4.021 0 00-.709.923 5.662 5.662 0 00-.47 1.067 8.98 8.98 0 00-.28 1.143c-.072.404-.121.787-.145 1.138-.024.344-.036.702-.036 1.063 0 .94.298 1.7.887 2.261.582.554 1.352.835 2.288.835h8.667c.936 0 1.705-.281 2.287-.835.59-.56.888-1.321.888-2.261 0-.363-.012-.72-.036-1.063zm-1.58 2.561c-.383.366-.894.544-1.56.544H4.653c-.666 0-1.176-.178-1.56-.544-.377-.359-.56-.848-.56-1.497 0-.337.01-.67.033-.99.021-.314.066-.658.132-1.024a7.79 7.79 0 01.246-1.008c.094-.295.223-.587.382-.868a2.98 2.98 0 01.521-.682 2.05 2.05 0 01.677-.421 2.39 2.39 0 01.831-.16c.037.019.103.056.21.126.216.141.466.302.743.479.311.199.712.378 1.192.533.49.158.99.239 1.486.239s.996-.08 1.486-.24a5.23 5.23 0 001.193-.532c.283-.181.525-.338.742-.48.107-.068.173-.106.21-.126.303.008.582.062.83.16.269.107.497.249.678.422.193.185.368.414.52.682.16.281.29.573.383.868.099.307.182.646.247 1.008.065.366.11.711.131 1.024.023.319.034.652.034.99 0 .649-.183 1.138-.56 1.497z" ></path>
  </symbol>
  <symbol  xmlns="http://www.w3.org/2000/svg" viewBox="0 0 6 6" id="Ellipse">
    <circle cx="3" cy="3" r="3" ></circle>
  </symbol>
</svg>