<svg width="18" height="18" viewBox="0 0 18 18" fill="none" xmlns="http://www.w3.org/2000/svg">
<path d="M8.87172 8.67067C10.0629 8.67067 11.0942 8.24344 11.9372 7.40051C12.7798 6.55773 13.2072 5.52652 13.2072 4.3352C13.2072 3.14428 12.78 2.11294 11.937 1.26988C11.0941 0.42723 10.0628 0 8.87172 0C7.68039 0 6.64919 0.42723 5.8064 1.27002C4.96361 2.1128 4.53625 3.14414 4.53625 4.3352C4.53625 5.52652 4.96361 6.55786 5.8064 7.40065C6.64946 8.2433 7.6808 8.67067 8.87172 8.67067ZM6.55237 2.01585C7.19905 1.36917 7.95766 1.05482 8.87172 1.05482C9.78564 1.05482 10.5444 1.36917 11.1912 2.01585C11.8379 2.66267 12.1524 3.42141 12.1524 4.3352C12.1524 5.24926 11.8379 6.00786 11.1912 6.65468C10.5444 7.3015 9.78564 7.61585 8.87172 7.61585C7.95793 7.61585 7.19933 7.30136 6.55237 6.65468C5.90555 6.008 5.59107 5.24926 5.59107 4.3352C5.59107 3.42141 5.90555 2.66267 6.55237 2.01585Z" fill="black"/>
<path d="M16.4576 13.8407C16.4333 13.49 16.3842 13.1074 16.3118 12.7034C16.2387 12.2963 16.1447 11.9115 16.032 11.5598C15.9156 11.1963 15.7575 10.8374 15.5618 10.4933C15.359 10.1363 15.1206 9.82538 14.8531 9.56953C14.5733 9.30188 14.2308 9.08668 13.8348 8.92972C13.4401 8.77357 13.0027 8.69447 12.5348 8.69447C12.3511 8.69447 12.1734 8.76987 11.8302 8.9933C11.619 9.13104 11.3719 9.29034 11.0962 9.46654C10.8604 9.61677 10.5409 9.75754 10.1464 9.88498C9.76147 10.0095 9.37063 10.0727 8.98474 10.0727C8.59912 10.0727 8.20828 10.0095 7.82307 9.88498C7.42894 9.75767 7.10938 9.61691 6.87399 9.46667C6.60085 9.29213 6.35366 9.13283 6.13929 8.99316C5.79638 8.76973 5.61867 8.69434 5.43493 8.69434C4.96691 8.69434 4.52965 8.77357 4.13511 8.92985C3.73933 9.08655 3.39669 9.30174 3.11668 9.56967C2.84916 9.82565 2.61076 10.1364 2.40806 10.4933C2.21264 10.8374 2.05444 11.1962 1.93798 11.56C1.82551 11.9117 1.73144 12.2963 1.65838 12.7034C1.58587 13.1068 1.53685 13.4896 1.51254 13.8411C1.48864 14.1849 1.47656 14.5426 1.47656 14.9041C1.47656 15.8437 1.77525 16.6043 2.36425 17.1653C2.94598 17.7189 3.71557 17.9996 4.65174 17.9996H13.3188C14.2547 17.9996 15.0243 17.7189 15.6062 17.1653C16.1953 16.6048 16.494 15.8438 16.494 14.9039C16.4939 14.5412 16.4817 14.1835 16.4576 13.8407ZM14.8789 16.4011C14.4945 16.7669 13.9842 16.9448 13.3187 16.9448H4.65174C3.98611 16.9448 3.47579 16.7669 3.09155 16.4012C2.71458 16.0424 2.53138 15.5525 2.53138 14.9041C2.53138 14.5668 2.54251 14.2338 2.56475 13.9141C2.58645 13.6004 2.63081 13.2559 2.69659 12.8897C2.76154 12.5281 2.84422 12.1888 2.94254 11.8816C3.03689 11.587 3.16557 11.2953 3.32514 11.0144C3.47744 10.7466 3.65267 10.5168 3.84603 10.3317C4.02689 10.1585 4.25486 10.0168 4.52347 9.91052C4.7719 9.81219 5.05109 9.75836 5.35418 9.75026C5.39112 9.7699 5.4569 9.80739 5.56347 9.87687C5.78031 10.0182 6.03025 10.1794 6.30655 10.3559C6.61801 10.5545 7.01929 10.7338 7.4987 10.8886C7.98883 11.0471 8.48871 11.1275 8.98488 11.1275C9.48105 11.1275 9.98106 11.0471 10.4709 10.8887C10.9507 10.7337 11.3519 10.5545 11.6638 10.3556C11.9465 10.1749 12.1894 10.0183 12.4063 9.87687C12.5129 9.80752 12.5786 9.7699 12.6156 9.75026C12.9188 9.75836 13.198 9.81219 13.4466 9.91052C13.715 10.0168 13.943 10.1587 14.1239 10.3317C14.3172 10.5167 14.4924 10.7464 14.6447 11.0145C14.8045 11.2953 14.9333 11.5872 15.0275 11.8815C15.1259 12.1891 15.2088 12.5283 15.2736 12.8896C15.3392 13.2564 15.3837 13.6011 15.4054 13.9142V13.9145C15.4278 14.2329 15.4391 14.5658 15.4392 14.9041C15.4391 15.5527 15.2559 16.0424 14.8789 16.4011Z" fill="black"/>
</svg>
