<svg width="19" height="19" viewBox="0 0 19 19" fill="none" xmlns="http://www.w3.org/2000/svg">
<path d="M9.49998 17.943C9.22949 17.943 8.96871 17.845 8.76548 17.667C7.99792 16.9958 7.25791 16.3651 6.60502 15.8087L6.60169 15.8058C4.68751 14.1746 3.03456 12.7659 1.88446 11.3782C0.598822 9.82688 0 8.35599 0 6.74912C0 5.18792 0.535331 3.74761 1.50728 2.69333C2.49082 1.62658 3.84038 1.03906 5.30779 1.03906C6.40454 1.03906 7.40896 1.3858 8.29306 2.06957C8.73924 2.41472 9.14367 2.83713 9.49998 3.32984C9.85643 2.83713 10.2607 2.41472 10.707 2.06957C11.5911 1.3858 12.5956 1.03906 13.6923 1.03906C15.1596 1.03906 16.5093 1.62658 17.4928 2.69333C18.4648 3.74761 19 5.18792 19 6.74912C19 8.35599 18.4013 9.82688 17.1157 11.3781C15.9656 12.7659 14.3127 14.1745 12.3989 15.8055C11.7448 16.3628 11.0036 16.9945 10.2343 17.6673C10.0313 17.845 9.77033 17.943 9.49998 17.943ZM5.30779 2.15205C4.15494 2.15205 3.09587 2.61215 2.32542 3.44769C1.54352 4.29585 1.11284 5.46827 1.11284 6.74912C1.11284 8.10057 1.61512 9.30923 2.7413 10.6681C3.8298 11.9815 5.44883 13.3613 7.32343 14.9588L7.32691 14.9617C7.98227 15.5203 8.72518 16.1535 9.49839 16.8295C10.2762 16.1521 11.0203 15.518 11.677 14.9586C13.5514 13.361 15.1703 11.9815 16.2588 10.6681C17.3848 9.30923 17.8871 8.10057 17.8871 6.74912C17.8871 5.46827 17.4564 4.29585 16.6745 3.44769C15.9042 2.61215 14.845 2.15205 13.6923 2.15205C12.8478 2.15205 12.0724 2.42052 11.3878 2.94991C10.7776 3.42189 10.3526 4.01854 10.1034 4.43602C9.9753 4.6507 9.74975 4.77885 9.49998 4.77885C9.25022 4.77885 9.02466 4.6507 8.89652 4.43602C8.64748 4.01854 8.22247 3.42189 7.61219 2.94991C6.92755 2.42052 6.15217 2.15205 5.30779 2.15205Z" fill="black"/>
</svg>
