<svg width="36" height="36" viewBox="0 0 36 36" fill="none" xmlns="http://www.w3.org/2000/svg">
<path d="M18.3543 36C18.2351 36 18.1159 36 17.9959 35.9995C15.1741 36.0063 12.5667 35.9346 10.0311 35.7803C7.70638 35.6388 5.58436 34.8354 3.89411 33.4572C2.26319 32.1273 1.14945 30.3291 0.583925 28.1132C0.0917361 26.184 0.0656435 24.2902 0.0406495 22.4585C0.022522 21.1442 0.00384522 19.5869 0 18.0032C0.00384522 16.413 0.022522 14.8557 0.0406495 13.5414C0.0656435 11.71 0.0917361 9.81621 0.583925 7.88673C1.14945 5.67078 2.26319 3.87259 3.89411 2.54269C5.58436 1.16445 7.70638 0.361076 10.0314 0.219626C12.567 0.0655425 15.1749 -0.00641816 18.0028 0.000448322C20.8255 -0.00559418 23.432 0.0655425 25.9676 0.219626C28.2923 0.361076 30.4143 1.16445 32.1046 2.54269C33.7358 3.87259 34.8493 5.67078 35.4148 7.88673C35.907 9.81594 35.9331 11.71 35.9581 13.5414C35.9762 14.8557 35.9951 16.413 35.9987 17.9967V18.0032C35.9951 19.5869 35.9762 21.1442 35.9581 22.4585C35.9331 24.2899 35.9072 26.1837 35.4148 28.1132C34.8493 30.3291 33.7358 32.1273 32.1046 33.4572C30.4143 34.8354 28.2923 35.6388 25.9676 35.7803C23.5394 35.928 21.0449 36 18.3543 36ZM17.9959 33.1869C20.7719 33.1935 23.3207 33.1235 25.7968 32.973C27.5546 32.8661 29.0787 32.2957 30.3273 31.2775C31.4814 30.3363 32.2763 29.0377 32.6896 27.4177C33.0994 25.8118 33.123 24.0875 33.1458 22.42C33.1637 21.1146 33.1824 19.5683 33.1862 17.9999C33.1824 16.4314 33.1637 14.8853 33.1458 13.5799C33.123 11.9124 33.0994 10.1881 32.6896 8.58189C32.2763 6.96196 31.4814 5.66337 30.3273 4.72211C29.0787 3.70422 27.5546 3.13376 25.7968 3.02692C23.3207 2.87613 20.7719 2.80664 18.0025 2.81268C15.2271 2.80609 12.678 2.87613 10.2019 3.02692C8.44411 3.13376 6.92003 3.70422 5.67143 4.72211C4.51731 5.66337 3.72245 6.96196 3.30909 8.58189C2.8993 10.1881 2.87568 11.9121 2.85288 13.5799C2.83503 14.8864 2.81635 16.4336 2.81251 18.0032C2.81635 19.5661 2.83503 21.1135 2.85288 22.42C2.87568 24.0875 2.8993 25.8118 3.30909 27.4177C3.72245 29.0377 4.51731 30.3363 5.67143 31.2775C6.92003 32.2954 8.44411 32.8659 10.2019 32.9727C12.678 33.1235 15.2276 33.1938 17.9959 33.1869ZM17.9289 26.789C13.0828 26.789 9.13982 22.8463 9.13982 17.9999C9.13982 13.1536 13.0828 9.21086 17.9289 9.21086C22.7753 9.21086 26.718 13.1536 26.718 17.9999C26.718 22.8463 22.7753 26.789 17.9289 26.789ZM17.9289 12.0234C14.6335 12.0234 11.9523 14.7046 11.9523 17.9999C11.9523 21.2953 14.6335 23.9765 17.9289 23.9765C21.2245 23.9765 23.9055 21.2953 23.9055 17.9999C23.9055 14.7046 21.2245 12.0234 17.9289 12.0234ZM27.7024 6.39835C26.5375 6.39835 25.593 7.34263 25.593 8.50774C25.593 9.67284 26.5375 10.6171 27.7024 10.6171C28.8675 10.6171 29.8117 9.67284 29.8117 8.50774C29.8117 7.34263 28.8675 6.39835 27.7024 6.39835Z" fill="black"/>
</svg>
