<svg width="18" height="18" viewBox="0 0 18 18" fill="none" xmlns="http://www.w3.org/2000/svg">
<path d="M17.4023 16.3863L13.5316 12.5156C14.625 11.1902 15.2191 9.54141 15.2191 7.80469C15.2191 5.82188 14.4492 3.96211 13.0465 2.55938C11.6473 1.15664 9.78398 0.386719 7.80469 0.386719C5.82539 0.386719 3.96211 1.15664 2.55938 2.55938C1.15664 3.95859 0.386719 5.82188 0.386719 7.80469C0.386719 9.78398 1.15664 11.6473 2.55938 13.05C3.95859 14.4492 5.82188 15.2227 7.80469 15.2227C9.54492 15.2227 11.1938 14.6285 12.5156 13.5352L16.3863 17.4023C16.6676 17.6836 17.1211 17.6836 17.4023 17.4023C17.6836 17.1211 17.6836 16.6676 17.4023 16.3863ZM3.57539 12.0305C2.44336 10.902 1.82109 9.40078 1.82109 7.80469C1.82109 6.20859 2.44336 4.70391 3.57187 3.57539C4.70039 2.44687 6.20156 1.82461 7.80117 1.82461C9.39727 1.82461 10.902 2.44687 12.0305 3.57539C13.159 4.70391 13.7812 6.20508 13.7812 7.80469C13.7812 9.40078 13.159 10.9055 12.0305 12.034C10.902 13.1625 9.39727 13.7848 7.80117 13.7848C6.20508 13.7848 4.70391 13.1625 3.57539 12.0305Z" fill="black"/>
</svg>
