<svg width="18" height="18" viewBox="0 0 18 18" fill="none" xmlns="http://www.w3.org/2000/svg">
<g clip-path="url(#clip0)">
<path d="M16.8066 17.4084L15.4385 4.38038C15.4098 4.10764 15.1799 3.90055 14.9057 3.90055H12.3343V3.31429C12.3343 1.48686 10.8475 0 9.02005 0C7.19247 0 5.70561 1.48686 5.70561 3.31429V3.90055H3.13427C2.86002 3.90055 2.63013 4.10764 2.60143 4.38038L1.23336 17.4084C1.21757 17.5593 1.2666 17.7099 1.36808 17.8228C1.46971 17.9356 1.61445 18 1.7662 18H16.2736C16.4255 18 16.5703 17.9356 16.6717 17.8228C16.7735 17.7099 16.8224 17.5593 16.8066 17.4084ZM6.77705 3.31429C6.77705 2.07765 7.78326 1.07144 9.02005 1.07144C10.2567 1.07144 11.2629 2.07765 11.2629 3.31429V3.90055H6.77705V3.31429ZM2.36111 16.9285L3.6167 4.97199H5.70561V6.15261C5.70561 6.44841 5.94553 6.68833 6.24133 6.68833C6.53714 6.68833 6.77705 6.44841 6.77705 6.15261V4.97199H11.2629V6.15261C11.2629 6.44841 11.5028 6.68833 11.7986 6.68833C12.0944 6.68833 12.3343 6.44841 12.3343 6.15261V4.97199H14.4233L15.6789 16.9285H2.36111Z" fill="black"/>
</g>
<defs>
<clipPath id="clip0">
<rect width="18" height="18" fill="white"/>
</clipPath>
</defs>
</svg>
