<svg width="39" height="24" viewBox="0 0 39 24" fill="none" xmlns="http://www.w3.org/2000/svg">
<g opacity="0.2">
<path d="M16.4209 19.5655C16.2934 19.5011 16.1079 19.6183 15.9746 19.7061C14.3225 20.784 12.6183 21.7681 10.7401 22.3891C8.20696 23.2268 5.6448 23.4376 3.07105 22.5765C2.17256 22.2778 1.36681 21.8033 0.787137 21.0359C-0.592485 19.2199 -0.117154 16.9295 1.88852 15.7169C2.19574 15.5294 2.52616 15.3712 2.86816 15.2658C3.17539 15.1721 3.30292 15.0315 3.37248 14.6976C3.74927 12.7762 5.08252 11.8155 6.83893 11.3878C8.13739 11.0715 9.45905 11.2355 10.7575 11.505C10.9314 11.5402 11.1053 11.5753 11.3314 11.6222C11.3314 7.89065 11.3314 0.363193 11.3314 0.363193L11.4183 0.451062C11.4183 0.451062 16.8209 7.97266 19.5512 11.7745C22.2466 7.84379 24.9073 3.96583 27.6318 0C27.6318 3.80766 27.6318 7.5216 27.6318 11.2765C28.2579 11.1652 28.8201 11.0364 29.394 10.9719C30.6983 10.8255 32.0025 10.802 33.2257 11.3937C34.5531 12.0439 35.4922 13.0105 35.6777 14.5687C35.6893 14.6742 35.869 14.803 36.0023 14.8499C36.7906 15.1311 37.521 15.5118 38.0775 16.1562C39.6311 17.9605 39.1731 20.4091 37.0747 21.6803C35.8864 22.4008 34.5763 22.6761 33.2199 22.7464C29.765 22.928 26.6696 21.7798 23.7944 19.9756L22.5887 19.2668C21.8525 18.763 21.18 18.3119 20.5134 17.855C19.5686 17.2048 19.5628 17.2048 18.6295 17.855C17.9397 18.3295 17.2615 18.8157 16.5253 19.3312L16.4209 19.5655ZM12.3806 3.45619C12.34 3.4679 12.2994 3.47376 12.2589 3.48548C12.2589 3.64364 12.2589 3.80181 12.2589 3.95997C12.2589 6.4496 12.2705 8.93336 12.2473 11.423C12.2415 11.8272 12.398 11.9736 12.74 12.0908C15.0993 12.9109 17.2441 14.1352 19.186 15.7169C19.4642 15.9453 19.6323 15.9688 19.9453 15.7462C22.0148 14.2465 24.1074 12.7703 26.4551 11.7335C26.6985 11.6222 26.7275 11.464 26.7275 11.2355C26.7217 8.66976 26.7275 6.10984 26.7217 3.54406C26.7217 3.43276 26.6985 3.32145 26.6754 3.06956C24.2639 6.58433 21.9278 9.98779 19.557 13.444C17.1397 10.0815 14.7573 6.76593 12.3806 3.45619ZM3.32611 15.588C2.90294 15.793 2.49717 15.9512 2.13778 16.1796C0.79873 17.0349 0.236447 18.435 0.72917 19.753C1.15813 20.9011 2.08561 21.5455 3.18119 21.9263C5.00136 22.5648 6.86791 22.5297 8.72287 22.1547C11.1111 21.6685 13.2037 20.5087 15.2036 19.1496C15.2442 19.1203 15.2732 19.0618 15.3369 18.9739C14.1428 18.3588 12.9835 17.773 11.8647 17.1989C11.5575 17.4918 11.3314 17.732 11.0705 17.9312C9.94598 18.7747 8.64751 19.009 7.28527 18.9329C5.23323 18.8099 3.81303 17.6324 3.32611 15.588ZM23.6726 18.9094C23.9335 19.0793 24.1074 19.1906 24.2813 19.3019C27.1275 21.0769 30.1476 22.2543 33.5677 22.0259C34.7154 21.9497 35.8284 21.7213 36.8138 21.0945C37.8283 20.4501 38.5007 19.5538 38.4195 18.2944C38.3268 16.865 37.1153 15.6056 35.6545 15.3244C35.6313 15.3888 35.5907 15.4533 35.5791 15.5236C35.3473 16.6483 34.7154 17.4742 33.7126 18.0015C32.304 18.7396 30.8374 18.7396 29.3476 18.3119C28.5071 18.0718 27.8115 17.5973 27.226 16.9353C26.0493 17.5856 24.9073 18.2241 23.6726 18.9094ZM12.3052 12.9519C12.1198 14.3051 12.5023 15.6114 12.0096 16.865C13.1748 17.5035 14.3457 18.1421 15.5166 18.7747C15.5862 18.8099 15.7253 18.7923 15.7949 18.7396C16.7745 18.0483 17.7484 17.3454 18.7686 16.6131C16.8035 15.0022 14.6935 13.7896 12.3052 12.9519ZM20.3569 16.6366C21.3655 17.3395 22.3104 18.0015 23.2611 18.6458C23.3364 18.6986 23.3886 18.7689 23.5741 18.6634C24.6697 18.0425 25.7595 17.404 26.8377 16.7596C26.9188 16.7127 27.0753 16.6541 27.0405 16.5897C26.7217 16.0098 26.7217 15.2482 26.7159 14.6331C26.7101 14.0063 26.7159 13.3795 26.7159 12.6473C24.403 13.7603 22.3916 15.1428 20.3569 16.6366ZM34.6517 14.5746C34.6575 14.4633 34.669 14.4164 34.6575 14.3754C34.6459 14.2992 34.6227 14.2289 34.5937 14.1587C34.1821 12.9695 33.2662 12.3427 32.1359 12.0439C30.7099 11.6632 29.2839 11.8741 27.8869 12.2724C27.7767 12.3017 27.6492 12.495 27.6492 12.618C27.626 13.5143 27.6202 14.4105 27.6492 15.301C27.6608 15.5997 27.7362 15.9043 27.8695 16.2441C30.0548 15.1604 32.246 14.4515 34.6517 14.5746ZM11.1749 16.5018C11.2734 16.1972 11.3372 15.9219 11.3198 15.6583C11.3372 14.762 11.3198 13.8716 11.3314 12.9753C11.3314 12.7469 11.285 12.618 11.0358 12.5653C9.93438 12.3075 8.833 12.1259 7.70264 12.2255C6.63604 12.3134 5.69697 12.7059 4.96078 13.5143C4.60718 13.9009 4.33474 14.3461 4.31155 14.9495C6.72879 14.7737 8.93155 15.506 11.1749 16.5018ZM11.001 16.8299C10.9256 16.7889 10.8966 16.783 10.8445 16.7479C8.76344 15.875 6.64184 15.2014 4.29996 15.4357C4.42749 16.2441 4.7637 16.8709 5.38974 17.2868C6.69401 18.1596 8.10261 18.1245 9.51702 17.6558C10.0039 17.4918 10.5488 17.1169 11.001 16.8299ZM28.1245 16.5194C28.3796 16.7127 28.5709 16.8943 28.7854 16.9998C29.3534 17.2809 30.1012 17.5153 30.7852 17.6031C31.875 17.7437 32.9358 17.5328 33.8111 16.783C34.3154 16.3495 34.6111 15.7989 34.669 15.0725C32.333 14.8792 30.2345 15.5294 28.1245 16.5194Z" fill="black"/>
<path d="M22.9538 19.4074C22.0669 19.8174 21.1858 20.2626 20.2989 20.6961C19.412 21.1296 18.5309 21.569 17.6324 21.979C17.5223 22.0317 17.4064 22.0786 17.2962 22.1313C17.1861 22.184 17.0702 22.2309 16.9542 22.2778C16.7224 22.3715 16.4963 22.4594 16.2644 22.5414C15.8007 22.7113 15.3369 22.8694 14.8674 23.0217C13.9341 23.3263 12.9893 23.6134 12.0444 23.8828C12.9835 23.5899 13.9167 23.2853 14.8442 22.9573C15.308 22.7933 15.7717 22.6234 16.2296 22.4418C16.4557 22.3539 16.6876 22.2602 16.9136 22.1606C17.0238 22.1137 17.1397 22.061 17.2499 22.0083C17.36 21.9556 17.4701 21.9029 17.5861 21.8501C18.473 21.4225 19.3483 20.9714 20.2236 20.5204L21.5394 19.8467C21.98 19.6241 22.4147 19.3957 22.8611 19.1848L22.9538 19.4074Z" fill="black"/>
<path d="M16.4209 19.3019C16.8673 19.5187 17.3078 19.7413 17.7426 19.9639L19.0584 20.6375C19.9337 21.0886 20.8091 21.5397 21.696 21.9673C21.8061 22.02 21.9162 22.0727 22.0322 22.1255C22.1423 22.1782 22.2582 22.225 22.3684 22.2778C22.5944 22.3773 22.8205 22.4652 23.0524 22.5589C23.5103 22.7405 23.9741 22.9104 24.4378 23.0744C25.3653 23.4025 26.2986 23.7071 27.2376 24C26.2928 23.7305 25.3479 23.4435 24.4146 23.1389C23.9451 22.9866 23.4813 22.8284 23.0176 22.6585C22.7857 22.5707 22.5539 22.4886 22.3278 22.3949C22.2119 22.3481 22.1017 22.3012 21.9858 22.2485C21.8699 22.2016 21.7597 22.1489 21.6496 22.0962C20.7511 21.6861 19.87 21.2468 18.9831 20.8133C18.102 20.3798 17.2209 19.9346 16.3282 19.5245L16.4209 19.3019Z" fill="black"/>
</g>
</svg>
